<svg width="989.307" height="87.939" viewBox="0 0 989.307 87.939" id="howdy" xmlns="http://www.w3.org/2000/svg">
    <path stroke="#000" fill="transparent" stroke-width="1"
          d="M 41.309 0 L 41.309 70.996 L 37.256 70.996 L 37.256 35.4 L 4.004 35.4 L 4.004 70.996 L 0 70.996 L 0 0 L 4.004 0 L 4.004 31.348 L 37.256 31.348 L 37.256 0 L 41.309 0 Z"
          id="0"/>
    <path stroke="#000" fill="transparent" stroke-width="1"
          d="M 78.711 71.289 Q 71.875 71.289 66.235 67.871 Q 60.596 64.453 57.251 58.765 A 24.258 24.258 0 0 1 53.906 46.24 Q 53.906 39.355 57.251 33.667 A 25.614 25.614 0 0 1 66.211 24.585 A 23.699 23.699 0 0 1 78.711 21.191 Q 85.498 21.191 91.138 24.585 Q 96.777 27.979 100.146 33.667 Q 103.516 39.355 103.516 46.24 Q 103.516 51.367 101.563 55.933 A 25.59 25.59 0 0 1 96.24 63.916 Q 92.871 67.334 88.354 69.312 A 23.779 23.779 0 0 1 78.711 71.289 Z M 78.711 67.236 A 20.112 20.112 0 0 0 89.16 64.429 A 20.95 20.95 0 0 0 96.68 56.86 A 20.533 20.533 0 0 0 99.457 46.787 A 24.352 24.352 0 0 0 99.463 46.24 A 21.23 21.23 0 0 0 98.056 38.464 A 20.053 20.053 0 0 0 96.68 35.62 Q 93.896 30.859 89.185 28.052 A 20.073 20.073 0 0 0 78.711 25.244 A 20.073 20.073 0 0 0 68.237 28.052 A 21.207 21.207 0 0 0 60.718 35.62 A 20.425 20.425 0 0 0 57.914 45.83 A 24.219 24.219 0 0 0 57.91 46.24 A 20.599 20.599 0 0 0 60.693 56.787 A 21.147 21.147 0 0 0 68.188 64.404 Q 72.9 67.236 78.711 67.236 Z"
          id="1"/>
    <path stroke="#000" fill="transparent" stroke-width="1"
          d="M 114.697 48.096 L 114.697 23.633 L 118.701 23.633 Q 118.701 42.888 118.739 46.501 A 40.778 40.778 0 0 0 118.75 47.217 A 23.485 23.485 0 0 0 119.418 52.893 A 20.981 20.981 0 0 0 120.044 54.956 A 21.75 21.75 0 0 0 122.583 59.951 A 19.764 19.764 0 0 0 123.584 61.279 Q 125.977 64.111 129.077 65.527 A 15.185 15.185 0 0 0 135.449 66.943 A 15.185 15.185 0 0 0 141.821 65.527 Q 144.922 64.111 147.314 61.279 A 20.394 20.394 0 0 0 150.652 55.621 A 23.244 23.244 0 0 0 150.903 54.956 A 22.155 22.155 0 0 0 152.162 48.564 A 25.778 25.778 0 0 0 152.197 47.217 L 152.246 45.654 L 152.246 23.633 L 156.25 23.633 L 156.25 47.363 A 26.086 26.086 0 0 0 157.238 53.937 A 19.969 19.969 0 0 0 161.133 61.279 Q 163.525 64.111 166.626 65.527 A 15.185 15.185 0 0 0 172.998 66.943 A 15.185 15.185 0 0 0 179.37 65.527 Q 182.471 64.111 184.863 61.279 A 20.394 20.394 0 0 0 188.201 55.621 A 23.244 23.244 0 0 0 188.452 54.956 A 22.155 22.155 0 0 0 189.711 48.564 A 25.778 25.778 0 0 0 189.746 47.217 L 189.746 23.633 L 193.799 23.633 L 193.799 48.193 Q 193.262 57.568 187.988 63.867 A 20.669 20.669 0 0 1 183.456 67.889 A 18.661 18.661 0 0 1 181.03 69.214 A 19.267 19.267 0 0 1 172.998 70.996 Q 168.896 70.996 164.99 69.214 A 19.471 19.471 0 0 1 159.024 64.938 A 23.086 23.086 0 0 1 158.057 63.867 A 28.444 28.444 0 0 1 156.061 61.137 A 25.45 25.45 0 0 1 155.664 60.498 Q 154.661 58.827 154.266 57.669 A 7.198 7.198 0 0 1 154.248 57.617 Q 153.953 58.405 153.404 59.434 A 30.383 30.383 0 0 1 152.808 60.498 A 25.308 25.308 0 0 1 150.939 63.243 A 28.749 28.749 0 0 1 150.439 63.867 A 20.669 20.669 0 0 1 145.907 67.889 A 18.661 18.661 0 0 1 143.481 69.214 A 19.515 19.515 0 0 1 137.139 70.923 A 18.327 18.327 0 0 1 135.498 70.996 A 19.267 19.267 0 0 1 127.466 69.214 A 19.487 19.487 0 0 1 121.328 64.783 A 22.997 22.997 0 0 1 120.508 63.867 Q 115.186 57.52 114.697 48.096 Z"
          id="2"/>
    <path stroke="#000" fill="transparent" stroke-width="1"
          d="M 250.928 32.568 L 250.928 1.758 L 254.932 1.758 L 254.932 71.045 L 250.928 71.045 L 250.928 59.912 A 16.604 16.604 0 0 1 248.262 63.469 Q 246.858 64.921 244.986 66.289 A 34.965 34.965 0 0 1 242.896 67.7 A 23.675 23.675 0 0 1 230.078 71.289 A 23.699 23.699 0 0 1 217.578 67.896 A 25.614 25.614 0 0 1 208.618 58.813 Q 205.273 53.125 205.273 46.24 Q 205.273 39.307 208.618 33.618 Q 211.963 27.93 217.578 24.561 Q 223.193 21.191 230.078 21.191 A 23.796 23.796 0 0 1 242.896 24.756 A 31.292 31.292 0 0 1 246.433 27.287 Q 249.422 29.781 250.928 32.568 Z M 230.078 67.236 Q 235.791 67.236 240.503 64.404 Q 245.215 61.572 248.022 56.787 A 20.461 20.461 0 0 0 250.83 46.24 Q 250.83 40.43 248.047 35.645 Q 245.264 30.859 240.527 28.052 A 20.112 20.112 0 0 0 230.078 25.244 A 20.073 20.073 0 0 0 219.604 28.052 Q 214.893 30.859 212.085 35.645 A 20.552 20.552 0 0 0 209.277 46.24 A 20.461 20.461 0 0 0 212.085 56.787 A 21.344 21.344 0 0 0 219.604 64.404 A 19.941 19.941 0 0 0 230.078 67.236 Z"
          id="3"/>
    <path stroke="#000" fill="transparent" stroke-width="1"
          d="M 282.129 87.891 L 277.734 87.939 A 2176.475 2176.475 0 0 0 278.503 86.082 Q 279.453 83.785 279.964 82.532 A 236.51 236.51 0 0 0 280.078 82.251 A 1189.563 1189.563 0 0 0 280.399 81.461 Q 280.707 80.699 280.925 80.158 A 257.962 257.962 0 0 0 281.104 79.712 A 180.008 180.008 0 0 1 281.787 78.027 A 508.531 508.531 0 0 1 281.981 77.53 Q 282.302 76.707 282.824 75.374 A 3192.745 3192.745 0 0 1 282.837 75.342 A 295.413 295.413 0 0 1 283.235 74.332 Q 283.692 73.18 284.336 71.574 A 1318.557 1318.557 0 0 1 284.961 70.02 L 264.453 23.633 L 268.848 23.633 L 287.061 64.844 L 303.516 23.633 L 307.861 23.633 L 282.129 87.891 Z"
          id="4"/>
    <path stroke="#000" fill="transparent" stroke-width="1"
          d="M 324.121 71.24 L 322.021 75.098 L 318.799 73.291 L 319.873 71.338 Q 320.605 71.094 320.605 70.996 L 320.557 70.996 A 2.563 2.563 0 0 1 318.729 70.242 A 3.364 3.364 0 0 1 318.677 70.19 A 2.683 2.683 0 0 1 317.871 68.249 A 3.383 3.383 0 0 1 317.871 68.213 A 2.684 2.684 0 0 1 318.601 66.364 A 3.476 3.476 0 0 1 318.652 66.309 Q 319.58 65.479 320.801 65.479 A 3.964 3.964 0 0 1 322.675 65.961 A 5.37 5.37 0 0 1 323.437 66.455 Q 324.707 67.432 324.707 69.141 A 3.764 3.764 0 0 1 324.561 70.154 Q 324.442 70.58 324.226 71.031 A 6.796 6.796 0 0 1 324.121 71.24 Z"
          id="5"/>
    <path stroke="#000" fill="transparent" stroke-width="1"
          d="M 367.822 0.049 L 367.822 71.045 L 363.818 71.045 L 363.818 0.049 L 367.822 0.049 Z" id="7"/>
    <path stroke="#000" fill="transparent" stroke-width="1"
          d="M 381.592 0.098 L 381.592 18.945 L 377.588 18.945 L 377.588 0.098 L 381.592 0.098 Z" id="8"/>
    <path stroke="#000" fill="transparent" stroke-width="1"
          d="M 470.361 45.313 L 470.361 71.045 L 466.357 71.045 L 466.357 46.24 A 26.37 26.37 0 0 0 465.274 38.534 A 21.924 21.924 0 0 0 461.426 31.201 A 17.383 17.383 0 0 0 458.344 28.181 A 14.866 14.866 0 0 0 455.957 26.709 A 14.217 14.217 0 0 0 449.609 25.195 A 14.345 14.345 0 0 0 443.334 26.662 A 16.525 16.525 0 0 0 443.237 26.709 A 15.536 15.536 0 0 0 438.825 29.968 A 18.758 18.758 0 0 0 437.744 31.201 Q 435.449 34.131 434.155 37.988 A 25.337 25.337 0 0 0 432.887 45.015 A 29.108 29.108 0 0 0 432.861 46.24 L 432.861 71.045 L 428.857 71.045 L 428.809 46.24 A 26.488 26.488 0 0 0 428.05 39.826 A 23.957 23.957 0 0 0 427.515 37.988 A 23.494 23.494 0 0 0 425.262 33.123 A 20.774 20.774 0 0 0 423.926 31.201 A 17.18 17.18 0 0 0 420.747 28.115 A 14.868 14.868 0 0 0 418.433 26.709 A 14.67 14.67 0 0 0 413.813 25.302 A 13.609 13.609 0 0 0 412.109 25.195 A 14.345 14.345 0 0 0 405.834 26.662 A 16.525 16.525 0 0 0 405.737 26.709 A 15.536 15.536 0 0 0 401.325 29.968 A 18.758 18.758 0 0 0 400.244 31.201 A 22.097 22.097 0 0 0 396.084 40.02 A 29.322 29.322 0 0 0 395.41 44.531 L 395.41 71.045 L 391.357 71.045 L 391.357 23.633 L 395.41 23.633 L 395.41 31.006 A 5.813 5.813 0 0 1 395.543 30.806 Q 395.853 30.356 396.686 29.229 A 252.85 252.85 0 0 1 397.07 28.711 A 22.216 22.216 0 0 1 400.905 24.992 A 18.8 18.8 0 0 1 404.053 23.071 Q 407.959 21.191 412.061 21.191 A 18.377 18.377 0 0 1 420.117 23.071 A 19.313 19.313 0 0 1 425.634 27.104 A 23.514 23.514 0 0 1 427.051 28.711 Q 429.736 32.129 430.859 35.303 A 18.344 18.344 0 0 1 432.221 32.274 Q 433.192 30.527 434.619 28.711 A 22.216 22.216 0 0 1 438.453 24.992 A 18.8 18.8 0 0 1 441.602 23.071 Q 445.508 21.191 449.609 21.191 A 18.214 18.214 0 0 1 457.373 22.956 A 20.985 20.985 0 0 1 457.617 23.071 A 19.634 19.634 0 0 1 463.01 26.949 A 24.043 24.043 0 0 1 464.6 28.711 A 26.083 26.083 0 0 1 469.728 39.992 A 34.741 34.741 0 0 1 470.361 45.313 Z"
          id="9"/>
    <path stroke="#000" fill="transparent" stroke-width="1"
          d="M 544.043 0.049 L 575.293 71.045 L 570.996 70.996 L 557.813 41.211 L 526.807 41.211 L 513.525 70.996 L 509.18 70.996 A 741.655 741.655 0 0 1 511.441 65.927 Q 514.266 59.662 515.971 56.276 A 84.508 84.508 0 0 1 516.357 55.518 A 91.216 91.216 0 0 0 517.102 53.992 A 112.083 112.083 0 0 0 517.871 52.344 A 72.452 72.452 0 0 0 518.733 50.432 Q 520.096 47.307 522.473 41.387 A 988.848 988.848 0 0 0 524.023 37.5 L 540.625 0.049 L 544.043 0.049 Z M 528.564 37.158 L 556.055 37.158 L 542.334 6.152 L 528.564 37.158 Z"
          id="11"/>
    <path stroke="#000" fill="transparent" stroke-width="1"
          d="M 586.865 1.758 L 586.865 71.045 L 582.813 71.045 L 582.813 1.758 L 586.865 1.758 Z" id="12"/>
    <path stroke="#000" fill="transparent" stroke-width="1"
          d="M 639.746 26.025 L 641.943 27.832 L 615.186 64.502 Q 619.434 66.748 624.463 66.748 A 21.718 21.718 0 0 0 626.953 66.602 A 20.538 20.538 0 0 0 640.243 59.376 A 26.811 26.811 0 0 0 640.82 58.691 L 642.041 57.08 L 645.215 59.57 Q 638.135 69.336 627.441 70.605 A 22.83 22.83 0 0 1 624.512 70.801 A 24.919 24.919 0 0 1 624.414 70.801 Q 620.361 70.801 616.479 69.458 A 24.924 24.924 0 0 1 609.394 65.596 A 28.008 28.008 0 0 1 609.18 65.43 Q 601.025 58.691 599.805 48.73 A 22.513 22.513 0 0 1 599.609 45.752 Q 599.609 41.65 600.928 37.72 A 24.954 24.954 0 0 1 604.765 30.539 A 28.035 28.035 0 0 1 604.932 30.322 A 27.359 27.359 0 0 1 611.925 24.131 A 23.929 23.929 0 0 1 621.484 20.85 A 28.143 28.143 0 0 1 624.037 20.705 A 30.908 30.908 0 0 1 624.414 20.703 A 24.953 24.953 0 0 1 632.397 22.021 A 24.396 24.396 0 0 1 639.746 26.025 Z M 611.621 62.256 L 611.768 62.402 L 636.426 28.564 A 18.548 18.548 0 0 0 631.897 26.125 A 21.521 21.521 0 0 0 630.835 25.757 Q 627.686 24.756 624.463 24.756 A 22.3 22.3 0 0 0 622.577 24.838 A 25.285 25.285 0 0 0 621.924 24.902 A 20.239 20.239 0 0 0 608.908 31.825 A 26.578 26.578 0 0 0 608.105 32.764 A 21.076 21.076 0 0 0 604.761 39.038 A 21.547 21.547 0 0 0 603.662 45.801 A 21.718 21.718 0 0 0 603.809 48.291 A 20.663 20.663 0 0 0 611.096 61.809 A 26.823 26.823 0 0 0 611.621 62.256 Z"
          id="13"/>
    <path stroke="#000" fill="transparent" stroke-width="1"
          d="M 685.742 70.996 L 681.152 71.045 A 8650.913 8650.913 0 0 0 679.549 68.32 Q 678.003 65.695 676.906 63.836 A 1866.119 1866.119 0 0 0 676.001 62.305 A 6902.15 6902.15 0 0 0 675.185 60.925 Q 674.395 59.591 673.819 58.62 A 1681.325 1681.325 0 0 0 673.34 57.812 A 177.978 177.978 0 0 1 672.003 55.524 A 158.599 158.599 0 0 1 671.582 54.785 A 199.369 199.369 0 0 0 671.092 53.92 Q 670.535 52.941 669.764 51.605 A 812.714 812.714 0 0 0 669.019 50.317 A 741.682 741.682 0 0 0 668.089 48.72 Q 666.565 46.106 664.258 42.188 L 658.984 48.193 L 658.984 71.045 L 654.98 71.045 L 654.98 1.758 L 658.984 1.758 L 658.984 42.09 Q 661.649 39.12 663.356 37.185 A 368.382 368.382 0 0 0 663.745 36.743 Q 665.527 34.717 666.357 33.789 A 113.604 113.604 0 0 1 667.497 32.443 A 126.344 126.344 0 0 1 667.896 31.982 Q 668.701 31.055 670.337 29.199 A 429.722 429.722 0 0 1 671.263 28.152 Q 672.806 26.414 675.312 23.617 A 4363.458 4363.458 0 0 1 675.342 23.584 L 680.566 23.633 A 654.41 654.41 0 0 1 679.097 25.391 Q 677.063 27.813 676.074 28.931 A 642.362 642.362 0 0 1 675.455 29.63 Q 674.857 30.303 674.428 30.782 A 143.375 143.375 0 0 1 674.072 31.177 A 112.712 112.712 0 0 1 672.656 32.715 A 28.502 28.502 0 0 1 672.296 33.148 Q 671.881 33.639 671.284 34.312 A 127.899 127.899 0 0 1 670.703 34.961 A 400.02 400.02 0 0 0 669.983 35.764 Q 669.177 36.664 668.112 37.862 A 1414.166 1414.166 0 0 0 667.09 39.014 L 685.742 70.996 Z"
          id="14"/>
    <path stroke="#000" fill="transparent" stroke-width="1"
          d="M 691.699 67.725 L 693.262 64.063 L 695.117 64.844 A 65.934 65.934 0 0 0 696.948 65.587 A 56.972 56.972 0 0 0 697.559 65.82 Q 698.877 66.211 700 66.504 A 16.659 16.659 0 0 0 702.25 66.912 A 13.602 13.602 0 0 0 703.711 66.992 A 13.29 13.29 0 0 0 706.604 66.691 A 10.43 10.43 0 0 0 709.204 65.747 A 12.205 12.205 0 0 0 712.056 63.7 A 11.03 11.03 0 0 0 713.086 62.549 Q 714.648 60.547 715.186 58.057 A 9.649 9.649 0 0 0 715.421 56.343 A 8.737 8.737 0 0 0 715.43 55.957 A 9.2 9.2 0 0 0 715.141 53.631 A 8.514 8.514 0 0 0 715.039 53.271 Q 714.355 50.732 712.207 48.706 A 11.19 11.19 0 0 0 709.828 47.016 Q 708.273 46.176 706.25 45.605 L 702.832 44.824 A 24.439 24.439 0 0 1 699.583 43.556 Q 697.889 42.743 696.563 41.724 A 13.896 13.896 0 0 1 695.85 41.138 A 13.452 13.452 0 0 1 693.753 38.84 A 10.6 10.6 0 0 1 692.285 35.937 A 10.336 10.336 0 0 1 691.626 33.009 A 9.571 9.571 0 0 1 691.602 32.324 A 10.772 10.772 0 0 1 691.846 30.029 A 12.429 12.429 0 0 1 694.58 24.707 A 13.382 13.382 0 0 1 697.847 22.105 A 16.496 16.496 0 0 1 699.414 21.313 A 14.985 14.985 0 0 1 703.4 20.201 A 19.394 19.394 0 0 1 706.104 20.02 A 20.836 20.836 0 0 1 709.029 20.236 A 27.086 27.086 0 0 1 711.475 20.703 A 35.313 35.313 0 0 1 712.695 21.033 A 45.766 45.766 0 0 1 714.014 21.436 A 37.539 37.539 0 0 1 714.635 21.648 Q 714.939 21.756 715.202 21.856 A 18.264 18.264 0 0 1 715.503 21.973 A 22.5 22.5 0 0 1 716.144 22.241 A 30.658 30.658 0 0 1 716.846 22.559 Q 717.334 22.754 718.457 23.242 L 716.895 26.953 L 715.088 26.172 A 18.995 18.995 0 0 0 713.375 25.482 A 16.526 16.526 0 0 0 712.793 25.293 A 33.929 33.929 0 0 0 711.549 24.904 A 28.349 28.349 0 0 0 710.84 24.707 Q 710.726 24.707 710.583 24.678 A 2.066 2.066 0 0 1 710.498 24.658 A 20.813 20.813 0 0 0 707.859 24.21 A 16.9 16.9 0 0 0 706.152 24.121 A 15.555 15.555 0 0 0 703.627 24.316 A 11.378 11.378 0 0 0 701.099 25.024 A 10.845 10.845 0 0 0 699.045 26.137 A 8.719 8.719 0 0 0 697.559 27.441 A 7.978 7.978 0 0 0 696.279 29.4 A 7.031 7.031 0 0 0 695.801 30.859 A 6.74 6.74 0 0 0 695.654 32.275 Q 695.654 33.447 696.045 34.619 A 7.391 7.391 0 0 0 697.23 36.715 Q 697.833 37.479 698.67 38.195 A 13.332 13.332 0 0 0 698.95 38.428 A 11.928 11.928 0 0 0 701.075 39.781 Q 702.73 40.618 704.932 41.211 A 20.936 20.936 0 0 0 705.856 41.403 A 18.217 18.217 0 0 0 706.152 41.455 A 36.255 36.255 0 0 1 708.393 41.999 A 39.511 39.511 0 0 1 708.545 42.041 A 21.608 21.608 0 0 1 711.841 43.46 Q 714.02 44.636 715.527 46.216 A 14.384 14.384 0 0 1 718.053 49.781 A 12.903 12.903 0 0 1 718.945 52.148 A 15.172 15.172 0 0 1 719.432 55.676 A 14.136 14.136 0 0 1 719.434 55.908 Q 719.434 57.422 719.141 58.887 A 16.178 16.178 0 0 1 716.26 65.039 A 15.091 15.091 0 0 1 711.406 69.152 A 17.466 17.466 0 0 1 711.011 69.36 A 14.945 14.945 0 0 1 705.793 70.887 A 18.579 18.579 0 0 1 703.76 70.996 A 20.216 20.216 0 0 1 700.771 70.765 A 24.631 24.631 0 0 1 699.121 70.459 A 18.609 18.609 0 0 1 697.867 70.12 Q 697.306 69.949 696.699 69.731 A 31.046 31.046 0 0 1 696.289 69.58 Q 695.117 69.189 694.287 68.872 Q 693.488 68.567 691.829 67.786 A 108.792 108.792 0 0 1 691.699 67.725 Z"
          id="15"/>
    <path stroke="#000" fill="transparent" stroke-width="1"
          d="M 774.854 32.52 L 774.854 23.633 L 778.857 23.633 L 778.857 71.045 L 774.854 71.045 L 774.854 59.912 A 18.111 18.111 0 0 1 772.105 63.643 A 22.967 22.967 0 0 1 770.117 65.503 A 24.696 24.696 0 0 1 764.899 68.813 A 29.44 29.44 0 0 1 762.891 69.678 A 24.175 24.175 0 0 1 754.594 71.283 A 27.529 27.529 0 0 1 754.004 71.289 A 23.736 23.736 0 0 1 741.528 67.896 A 25.549 25.549 0 0 1 732.544 58.813 Q 729.199 53.125 729.199 46.24 Q 729.199 39.355 732.544 33.667 Q 735.889 27.979 741.528 24.585 A 23.736 23.736 0 0 1 754.004 21.191 Q 758.74 21.191 762.891 22.778 A 26.745 26.745 0 0 1 767.848 25.264 A 23.04 23.04 0 0 1 770.117 26.929 A 21.891 21.891 0 0 1 772.986 29.783 A 17.487 17.487 0 0 1 774.854 32.52 Z M 754.004 67.236 A 19.941 19.941 0 0 0 764.478 64.404 Q 769.189 61.572 771.973 56.812 A 20.523 20.523 0 0 0 774.755 46.422 A 24.156 24.156 0 0 0 774.756 46.24 A 20.877 20.877 0 0 0 773.023 37.724 A 20.266 20.266 0 0 0 771.973 35.669 Q 769.189 30.908 764.478 28.076 A 19.941 19.941 0 0 0 754.004 25.244 A 20.681 20.681 0 0 0 746.219 26.695 A 19.676 19.676 0 0 0 743.481 28.052 Q 738.77 30.859 735.986 35.62 A 20.533 20.533 0 0 0 733.209 45.693 A 24.352 24.352 0 0 0 733.203 46.24 Q 733.203 52.1 736.011 56.86 A 21.207 21.207 0 0 0 743.53 64.429 A 20.073 20.073 0 0 0 754.004 67.236 Z"
          id="16"/>
    <path stroke="#000" fill="transparent" stroke-width="1"
          d="M 839.746 45.313 L 839.746 71.045 L 835.693 71.045 L 835.693 46.24 A 26.488 26.488 0 0 0 834.935 39.826 A 23.957 23.957 0 0 0 834.399 37.988 A 23.494 23.494 0 0 0 832.147 33.123 A 20.774 20.774 0 0 0 830.811 31.201 A 17.18 17.18 0 0 0 827.632 28.115 A 14.868 14.868 0 0 0 825.317 26.709 A 14.67 14.67 0 0 0 820.698 25.302 A 13.609 13.609 0 0 0 818.994 25.195 A 14.345 14.345 0 0 0 812.719 26.662 A 16.525 16.525 0 0 0 812.622 26.709 A 15.536 15.536 0 0 0 808.21 29.968 A 18.758 18.758 0 0 0 807.129 31.201 A 22.339 22.339 0 0 0 802.955 39.978 A 29.613 29.613 0 0 0 802.246 44.531 L 802.246 71.045 L 798.242 71.045 L 798.242 23.633 L 802.246 23.633 L 802.246 31.104 Q 802.539 30.615 803.955 28.711 A 22.216 22.216 0 0 1 807.789 24.992 A 18.8 18.8 0 0 1 810.938 23.071 Q 814.844 21.191 818.945 21.191 A 18.214 18.214 0 0 1 826.709 22.956 A 20.985 20.985 0 0 1 826.953 23.071 A 19.634 19.634 0 0 1 832.346 26.949 A 24.043 24.043 0 0 1 833.936 28.711 A 26.316 26.316 0 0 1 839.089 39.992 A 35.026 35.026 0 0 1 839.746 45.313 Z"
          id="17"/>
    <path stroke="#000" fill="transparent" stroke-width="1"
          d="M 896.875 32.568 L 896.875 1.758 L 900.879 1.758 L 900.879 71.045 L 896.875 71.045 L 896.875 59.912 A 16.604 16.604 0 0 1 894.209 63.469 Q 892.806 64.921 890.933 66.289 A 34.965 34.965 0 0 1 888.843 67.7 A 23.675 23.675 0 0 1 876.025 71.289 A 23.699 23.699 0 0 1 863.525 67.896 A 25.614 25.614 0 0 1 854.565 58.813 Q 851.221 53.125 851.221 46.24 Q 851.221 39.307 854.565 33.618 Q 857.91 27.93 863.525 24.561 Q 869.141 21.191 876.025 21.191 A 23.796 23.796 0 0 1 888.843 24.756 A 31.292 31.292 0 0 1 892.38 27.287 Q 895.369 29.781 896.875 32.568 Z M 876.025 67.236 Q 881.738 67.236 886.45 64.404 Q 891.162 61.572 893.97 56.787 A 20.461 20.461 0 0 0 896.777 46.24 Q 896.777 40.43 893.994 35.645 Q 891.211 30.859 886.475 28.052 A 20.112 20.112 0 0 0 876.025 25.244 A 20.073 20.073 0 0 0 865.552 28.052 Q 860.84 30.859 858.032 35.645 A 20.552 20.552 0 0 0 855.225 46.24 A 20.461 20.461 0 0 0 858.032 56.787 A 21.344 21.344 0 0 0 865.552 64.404 A 19.941 19.941 0 0 0 876.025 67.236 Z"
          id="18"/>
    <path stroke="#000" fill="transparent" stroke-width="1"
          d="M 924.805 46.484 L 924.805 71.045 L 920.801 71.045 L 920.801 47.363 L 920.459 47.363 L 920.801 46.68 L 920.801 23.633 L 924.805 23.633 L 924.805 32.422 A 17.265 17.265 0 0 1 928.605 27.778 Q 930.51 26.098 933.07 24.636 A 39.338 39.338 0 0 1 936.621 22.852 L 936.621 27.246 A 22.29 22.29 0 0 0 930.002 32.329 A 21.151 21.151 0 0 0 928.198 34.692 A 20.47 20.47 0 0 0 924.895 44.664 A 24.416 24.416 0 0 0 924.854 45.41 L 924.805 46.484 Z"
          id="19"/>
    <path stroke="#000" fill="transparent" stroke-width="1"
          d="M 985.303 32.52 L 985.303 23.633 L 989.307 23.633 L 989.307 71.045 L 985.303 71.045 L 985.303 59.912 A 18.111 18.111 0 0 1 982.554 63.643 A 22.967 22.967 0 0 1 980.566 65.503 A 24.696 24.696 0 0 1 975.348 68.813 A 29.44 29.44 0 0 1 973.34 69.678 A 24.175 24.175 0 0 1 965.043 71.283 A 27.529 27.529 0 0 1 964.453 71.289 A 23.736 23.736 0 0 1 951.978 67.896 A 25.549 25.549 0 0 1 942.993 58.813 Q 939.648 53.125 939.648 46.24 Q 939.648 39.355 942.993 33.667 Q 946.338 27.979 951.978 24.585 A 23.736 23.736 0 0 1 964.453 21.191 Q 969.189 21.191 973.34 22.778 A 26.745 26.745 0 0 1 978.298 25.264 A 23.04 23.04 0 0 1 980.566 26.929 A 21.891 21.891 0 0 1 983.435 29.783 A 17.487 17.487 0 0 1 985.303 32.52 Z M 964.453 67.236 A 19.941 19.941 0 0 0 974.927 64.404 Q 979.639 61.572 982.422 56.812 A 20.523 20.523 0 0 0 985.204 46.422 A 24.156 24.156 0 0 0 985.205 46.24 A 20.877 20.877 0 0 0 983.472 37.724 A 20.266 20.266 0 0 0 982.422 35.669 Q 979.639 30.908 974.927 28.076 A 19.941 19.941 0 0 0 964.453 25.244 A 20.681 20.681 0 0 0 956.668 26.695 A 19.676 19.676 0 0 0 953.931 28.052 Q 949.219 30.859 946.436 35.62 A 20.533 20.533 0 0 0 943.658 45.693 A 24.352 24.352 0 0 0 943.652 46.24 Q 943.652 52.1 946.46 56.86 A 21.207 21.207 0 0 0 953.979 64.429 A 20.073 20.073 0 0 0 964.453 67.236 Z"
          id="20"/>
</svg>
